<svg xmlns="http://www.w3.org/2000/svg" version="1.1" xmlns:xlink="http://www.w3.org/1999/xlink" xmlns:svgjs="http://svgjs.dev/svgjs" viewBox="0 0 800 800" opacity="1"><defs><linearGradient gradientTransform="rotate(270)" x1="50%" y1="0%" x2="50%" y2="100%" id="sssquiggly-grad"><stop stop-color="hsl(230, 55%, 50%)" stop-opacity="1" offset="0%"></stop><stop stop-color="hsl(230, 55%, 70%)" stop-opacity="1" offset="100%"></stop></linearGradient></defs><g stroke-width="2" stroke="url(#sssquiggly-grad)" fill="none" stroke-linecap="round" transform="matrix(1,0,0,1,0,50.199615478515625)"><path d="M10,10C21.805555555555557,15,40.97222222222223,37.75,66.66666666666667,34C92.36111111111111,30.25,105.55555555555557,-4.666666666666667,133.33333333333334,-8C161.11111111111111,-11.333333333333332,172.22222222222223,19.875,200,18C227.77777777777777,16.125,238.8888888888889,-22.208333333333336,266.6666666666667,-17C294.44444444444446,-11.791666666666666,305.5555555555556,41.541666666666664,333.33333333333337,43C361.11111111111114,44.458333333333336,372.22222222222223,-7.708333333333334,400,-10C427.77777777777777,-12.291666666666666,438.8888888888889,30.333333333333332,466.6666666666667,32C494.44444444444446,33.666666666666664,505.5555555555556,-6.166666666666667,533.3333333333334,-2C561.1111111111111,2.166666666666667,572.2222222222222,54.5,600,52C627.7777777777778,49.5,638.8888888888889,-10.875,666.6666666666667,-14C694.4444444444446,-17.125,707.6388888888889,32,733.3333333333334,37C759.0277777777778,42,778.1944444444445,15.625,790,10"></path><path d="M10,10C21.805555555555557,15,40.97222222222223,37.75,66.66666666666667,34C92.36111111111111,30.25,105.55555555555557,-4.666666666666667,133.33333333333334,-8C161.11111111111111,-11.333333333333332,172.22222222222223,19.875,200,18C227.77777777777777,16.125,238.8888888888889,-22.208333333333336,266.6666666666667,-17C294.44444444444446,-11.791666666666666,305.5555555555556,41.541666666666664,333.33333333333337,43C361.11111111111114,44.458333333333336,372.22222222222223,-7.708333333333334,400,-10C427.77777777777777,-12.291666666666666,438.8888888888889,30.333333333333332,466.6666666666667,32C494.44444444444446,33.666666666666664,505.5555555555556,-6.166666666666667,533.3333333333334,-2C561.1111111111111,2.166666666666667,572.2222222222222,54.5,600,52C627.7777777777778,49.5,638.8888888888889,-10.875,666.6666666666667,-14C694.4444444444446,-17.125,707.6388888888889,32,733.3333333333334,37C759.0277777777778,42,778.1944444444445,15.625,790,10" transform="matrix(1,0,0,1,0,665)"></path><path d="M10,10C21.805555555555557,15,40.97222222222223,37.75,66.66666666666667,34C92.36111111111111,30.25,105.55555555555557,-4.666666666666667,133.33333333333334,-8C161.11111111111111,-11.333333333333332,172.22222222222223,19.875,200,18C227.77777777777777,16.125,238.8888888888889,-22.208333333333336,266.6666666666667,-17C294.44444444444446,-11.791666666666666,305.5555555555556,41.541666666666664,333.33333333333337,43C361.11111111111114,44.458333333333336,372.22222222222223,-7.708333333333334,400,-10C427.77777777777777,-12.291666666666666,438.8888888888889,30.333333333333332,466.6666666666667,32C494.44444444444446,33.666666666666664,505.5555555555556,-6.166666666666667,533.3333333333334,-2C561.1111111111111,2.166666666666667,572.2222222222222,54.5,600,52C627.7777777777778,49.5,638.8888888888889,-10.875,666.6666666666667,-14C694.4444444444446,-17.125,707.6388888888889,32,733.3333333333334,37C759.0277777777778,42,778.1944444444445,15.625,790,10" transform="matrix(1,0,0,1,0,630)"></path><path d="M10,10C21.805555555555557,15,40.97222222222223,37.75,66.66666666666667,34C92.36111111111111,30.25,105.55555555555557,-4.666666666666667,133.33333333333334,-8C161.11111111111111,-11.333333333333332,172.22222222222223,19.875,200,18C227.77777777777777,16.125,238.8888888888889,-22.208333333333336,266.6666666666667,-17C294.44444444444446,-11.791666666666666,305.5555555555556,41.541666666666664,333.33333333333337,43C361.11111111111114,44.458333333333336,372.22222222222223,-7.708333333333334,400,-10C427.77777777777777,-12.291666666666666,438.8888888888889,30.333333333333332,466.6666666666667,32C494.44444444444446,33.666666666666664,505.5555555555556,-6.166666666666667,533.3333333333334,-2C561.1111111111111,2.166666666666667,572.2222222222222,54.5,600,52C627.7777777777778,49.5,638.8888888888889,-10.875,666.6666666666667,-14C694.4444444444446,-17.125,707.6388888888889,32,733.3333333333334,37C759.0277777777778,42,778.1944444444445,15.625,790,10" transform="matrix(1,0,0,1,0,595)"></path><path d="M10,10C21.805555555555557,15,40.97222222222223,37.75,66.66666666666667,34C92.36111111111111,30.25,105.55555555555557,-4.666666666666667,133.33333333333334,-8C161.11111111111111,-11.333333333333332,172.22222222222223,19.875,200,18C227.77777777777777,16.125,238.8888888888889,-22.208333333333336,266.6666666666667,-17C294.44444444444446,-11.791666666666666,305.5555555555556,41.541666666666664,333.33333333333337,43C361.11111111111114,44.458333333333336,372.22222222222223,-7.708333333333334,400,-10C427.77777777777777,-12.291666666666666,438.8888888888889,30.333333333333332,466.6666666666667,32C494.44444444444446,33.666666666666664,505.5555555555556,-6.166666666666667,533.3333333333334,-2C561.1111111111111,2.166666666666667,572.2222222222222,54.5,600,52C627.7777777777778,49.5,638.8888888888889,-10.875,666.6666666666667,-14C694.4444444444446,-17.125,707.6388888888889,32,733.3333333333334,37C759.0277777777778,42,778.1944444444445,15.625,790,10" transform="matrix(1,0,0,1,0,560)"></path><path d="M10,10C21.805555555555557,15,40.97222222222223,37.75,66.66666666666667,34C92.36111111111111,30.25,105.55555555555557,-4.666666666666667,133.33333333333334,-8C161.11111111111111,-11.333333333333332,172.22222222222223,19.875,200,18C227.77777777777777,16.125,238.8888888888889,-22.208333333333336,266.6666666666667,-17C294.44444444444446,-11.791666666666666,305.5555555555556,41.541666666666664,333.33333333333337,43C361.11111111111114,44.458333333333336,372.22222222222223,-7.708333333333334,400,-10C427.77777777777777,-12.291666666666666,438.8888888888889,30.333333333333332,466.6666666666667,32C494.44444444444446,33.666666666666664,505.5555555555556,-6.166666666666667,533.3333333333334,-2C561.1111111111111,2.166666666666667,572.2222222222222,54.5,600,52C627.7777777777778,49.5,638.8888888888889,-10.875,666.6666666666667,-14C694.4444444444446,-17.125,707.6388888888889,32,733.3333333333334,37C759.0277777777778,42,778.1944444444445,15.625,790,10" transform="matrix(1,0,0,1,0,525)"></path><path d="M10,10C21.805555555555557,15,40.97222222222223,37.75,66.66666666666667,34C92.36111111111111,30.25,105.55555555555557,-4.666666666666667,133.33333333333334,-8C161.11111111111111,-11.333333333333332,172.22222222222223,19.875,200,18C227.77777777777777,16.125,238.8888888888889,-22.208333333333336,266.6666666666667,-17C294.44444444444446,-11.791666666666666,305.5555555555556,41.541666666666664,333.33333333333337,43C361.11111111111114,44.458333333333336,372.22222222222223,-7.708333333333334,400,-10C427.77777777777777,-12.291666666666666,438.8888888888889,30.333333333333332,466.6666666666667,32C494.44444444444446,33.666666666666664,505.5555555555556,-6.166666666666667,533.3333333333334,-2C561.1111111111111,2.166666666666667,572.2222222222222,54.5,600,52C627.7777777777778,49.5,638.8888888888889,-10.875,666.6666666666667,-14C694.4444444444446,-17.125,707.6388888888889,32,733.3333333333334,37C759.0277777777778,42,778.1944444444445,15.625,790,10" transform="matrix(1,0,0,1,0,490)"></path><path d="M10,10C21.805555555555557,15,40.97222222222223,37.75,66.66666666666667,34C92.36111111111111,30.25,105.55555555555557,-4.666666666666667,133.33333333333334,-8C161.11111111111111,-11.333333333333332,172.22222222222223,19.875,200,18C227.77777777777777,16.125,238.8888888888889,-22.208333333333336,266.6666666666667,-17C294.44444444444446,-11.791666666666666,305.5555555555556,41.541666666666664,333.33333333333337,43C361.11111111111114,44.458333333333336,372.22222222222223,-7.708333333333334,400,-10C427.77777777777777,-12.291666666666666,438.8888888888889,30.333333333333332,466.6666666666667,32C494.44444444444446,33.666666666666664,505.5555555555556,-6.166666666666667,533.3333333333334,-2C561.1111111111111,2.166666666666667,572.2222222222222,54.5,600,52C627.7777777777778,49.5,638.8888888888889,-10.875,666.6666666666667,-14C694.4444444444446,-17.125,707.6388888888889,32,733.3333333333334,37C759.0277777777778,42,778.1944444444445,15.625,790,10" transform="matrix(1,0,0,1,0,455)"></path><path d="M10,10C21.805555555555557,15,40.97222222222223,37.75,66.66666666666667,34C92.36111111111111,30.25,105.55555555555557,-4.666666666666667,133.33333333333334,-8C161.11111111111111,-11.333333333333332,172.22222222222223,19.875,200,18C227.77777777777777,16.125,238.8888888888889,-22.208333333333336,266.6666666666667,-17C294.44444444444446,-11.791666666666666,305.5555555555556,41.541666666666664,333.33333333333337,43C361.11111111111114,44.458333333333336,372.22222222222223,-7.708333333333334,400,-10C427.77777777777777,-12.291666666666666,438.8888888888889,30.333333333333332,466.6666666666667,32C494.44444444444446,33.666666666666664,505.5555555555556,-6.166666666666667,533.3333333333334,-2C561.1111111111111,2.166666666666667,572.2222222222222,54.5,600,52C627.7777777777778,49.5,638.8888888888889,-10.875,666.6666666666667,-14C694.4444444444446,-17.125,707.6388888888889,32,733.3333333333334,37C759.0277777777778,42,778.1944444444445,15.625,790,10" transform="matrix(1,0,0,1,0,420)"></path><path d="M10,10C21.805555555555557,15,40.97222222222223,37.75,66.66666666666667,34C92.36111111111111,30.25,105.55555555555557,-4.666666666666667,133.33333333333334,-8C161.11111111111111,-11.333333333333332,172.22222222222223,19.875,200,18C227.77777777777777,16.125,238.8888888888889,-22.208333333333336,266.6666666666667,-17C294.44444444444446,-11.791666666666666,305.5555555555556,41.541666666666664,333.33333333333337,43C361.11111111111114,44.458333333333336,372.22222222222223,-7.708333333333334,400,-10C427.77777777777777,-12.291666666666666,438.8888888888889,30.333333333333332,466.6666666666667,32C494.44444444444446,33.666666666666664,505.5555555555556,-6.166666666666667,533.3333333333334,-2C561.1111111111111,2.166666666666667,572.2222222222222,54.5,600,52C627.7777777777778,49.5,638.8888888888889,-10.875,666.6666666666667,-14C694.4444444444446,-17.125,707.6388888888889,32,733.3333333333334,37C759.0277777777778,42,778.1944444444445,15.625,790,10" transform="matrix(1,0,0,1,0,385)"></path><path d="M10,10C21.805555555555557,15,40.97222222222223,37.75,66.66666666666667,34C92.36111111111111,30.25,105.55555555555557,-4.666666666666667,133.33333333333334,-8C161.11111111111111,-11.333333333333332,172.22222222222223,19.875,200,18C227.77777777777777,16.125,238.8888888888889,-22.208333333333336,266.6666666666667,-17C294.44444444444446,-11.791666666666666,305.5555555555556,41.541666666666664,333.33333333333337,43C361.11111111111114,44.458333333333336,372.22222222222223,-7.708333333333334,400,-10C427.77777777777777,-12.291666666666666,438.8888888888889,30.333333333333332,466.6666666666667,32C494.44444444444446,33.666666666666664,505.5555555555556,-6.166666666666667,533.3333333333334,-2C561.1111111111111,2.166666666666667,572.2222222222222,54.5,600,52C627.7777777777778,49.5,638.8888888888889,-10.875,666.6666666666667,-14C694.4444444444446,-17.125,707.6388888888889,32,733.3333333333334,37C759.0277777777778,42,778.1944444444445,15.625,790,10" transform="matrix(1,0,0,1,0,350)"></path><path d="M10,10C21.805555555555557,15,40.97222222222223,37.75,66.66666666666667,34C92.36111111111111,30.25,105.55555555555557,-4.666666666666667,133.33333333333334,-8C161.11111111111111,-11.333333333333332,172.22222222222223,19.875,200,18C227.77777777777777,16.125,238.8888888888889,-22.208333333333336,266.6666666666667,-17C294.44444444444446,-11.791666666666666,305.5555555555556,41.541666666666664,333.33333333333337,43C361.11111111111114,44.458333333333336,372.22222222222223,-7.708333333333334,400,-10C427.77777777777777,-12.291666666666666,438.8888888888889,30.333333333333332,466.6666666666667,32C494.44444444444446,33.666666666666664,505.5555555555556,-6.166666666666667,533.3333333333334,-2C561.1111111111111,2.166666666666667,572.2222222222222,54.5,600,52C627.7777777777778,49.5,638.8888888888889,-10.875,666.6666666666667,-14C694.4444444444446,-17.125,707.6388888888889,32,733.3333333333334,37C759.0277777777778,42,778.1944444444445,15.625,790,10" transform="matrix(1,0,0,1,0,315)"></path><path d="M10,10C21.805555555555557,15,40.97222222222223,37.75,66.66666666666667,34C92.36111111111111,30.25,105.55555555555557,-4.666666666666667,133.33333333333334,-8C161.11111111111111,-11.333333333333332,172.22222222222223,19.875,200,18C227.77777777777777,16.125,238.8888888888889,-22.208333333333336,266.6666666666667,-17C294.44444444444446,-11.791666666666666,305.5555555555556,41.541666666666664,333.33333333333337,43C361.11111111111114,44.458333333333336,372.22222222222223,-7.708333333333334,400,-10C427.77777777777777,-12.291666666666666,438.8888888888889,30.333333333333332,466.6666666666667,32C494.44444444444446,33.666666666666664,505.5555555555556,-6.166666666666667,533.3333333333334,-2C561.1111111111111,2.166666666666667,572.2222222222222,54.5,600,52C627.7777777777778,49.5,638.8888888888889,-10.875,666.6666666666667,-14C694.4444444444446,-17.125,707.6388888888889,32,733.3333333333334,37C759.0277777777778,42,778.1944444444445,15.625,790,10" transform="matrix(1,0,0,1,0,280)"></path><path d="M10,10C21.805555555555557,15,40.97222222222223,37.75,66.66666666666667,34C92.36111111111111,30.25,105.55555555555557,-4.666666666666667,133.33333333333334,-8C161.11111111111111,-11.333333333333332,172.22222222222223,19.875,200,18C227.77777777777777,16.125,238.8888888888889,-22.208333333333336,266.6666666666667,-17C294.44444444444446,-11.791666666666666,305.5555555555556,41.541666666666664,333.33333333333337,43C361.11111111111114,44.458333333333336,372.22222222222223,-7.708333333333334,400,-10C427.77777777777777,-12.291666666666666,438.8888888888889,30.333333333333332,466.6666666666667,32C494.44444444444446,33.666666666666664,505.5555555555556,-6.166666666666667,533.3333333333334,-2C561.1111111111111,2.166666666666667,572.2222222222222,54.5,600,52C627.7777777777778,49.5,638.8888888888889,-10.875,666.6666666666667,-14C694.4444444444446,-17.125,707.6388888888889,32,733.3333333333334,37C759.0277777777778,42,778.1944444444445,15.625,790,10" transform="matrix(1,0,0,1,0,245)"></path><path d="M10,10C21.805555555555557,15,40.97222222222223,37.75,66.66666666666667,34C92.36111111111111,30.25,105.55555555555557,-4.666666666666667,133.33333333333334,-8C161.11111111111111,-11.333333333333332,172.22222222222223,19.875,200,18C227.77777777777777,16.125,238.8888888888889,-22.208333333333336,266.6666666666667,-17C294.44444444444446,-11.791666666666666,305.5555555555556,41.541666666666664,333.33333333333337,43C361.11111111111114,44.458333333333336,372.22222222222223,-7.708333333333334,400,-10C427.77777777777777,-12.291666666666666,438.8888888888889,30.333333333333332,466.6666666666667,32C494.44444444444446,33.666666666666664,505.5555555555556,-6.166666666666667,533.3333333333334,-2C561.1111111111111,2.166666666666667,572.2222222222222,54.5,600,52C627.7777777777778,49.5,638.8888888888889,-10.875,666.6666666666667,-14C694.4444444444446,-17.125,707.6388888888889,32,733.3333333333334,37C759.0277777777778,42,778.1944444444445,15.625,790,10" transform="matrix(1,0,0,1,0,210)"></path><path d="M10,10C21.805555555555557,15,40.97222222222223,37.75,66.66666666666667,34C92.36111111111111,30.25,105.55555555555557,-4.666666666666667,133.33333333333334,-8C161.11111111111111,-11.333333333333332,172.22222222222223,19.875,200,18C227.77777777777777,16.125,238.8888888888889,-22.208333333333336,266.6666666666667,-17C294.44444444444446,-11.791666666666666,305.5555555555556,41.541666666666664,333.33333333333337,43C361.11111111111114,44.458333333333336,372.22222222222223,-7.708333333333334,400,-10C427.77777777777777,-12.291666666666666,438.8888888888889,30.333333333333332,466.6666666666667,32C494.44444444444446,33.666666666666664,505.5555555555556,-6.166666666666667,533.3333333333334,-2C561.1111111111111,2.166666666666667,572.2222222222222,54.5,600,52C627.7777777777778,49.5,638.8888888888889,-10.875,666.6666666666667,-14C694.4444444444446,-17.125,707.6388888888889,32,733.3333333333334,37C759.0277777777778,42,778.1944444444445,15.625,790,10" transform="matrix(1,0,0,1,0,175)"></path><path d="M10,10C21.805555555555557,15,40.97222222222223,37.75,66.66666666666667,34C92.36111111111111,30.25,105.55555555555557,-4.666666666666667,133.33333333333334,-8C161.11111111111111,-11.333333333333332,172.22222222222223,19.875,200,18C227.77777777777777,16.125,238.8888888888889,-22.208333333333336,266.6666666666667,-17C294.44444444444446,-11.791666666666666,305.5555555555556,41.541666666666664,333.33333333333337,43C361.11111111111114,44.458333333333336,372.22222222222223,-7.708333333333334,400,-10C427.77777777777777,-12.291666666666666,438.8888888888889,30.333333333333332,466.6666666666667,32C494.44444444444446,33.666666666666664,505.5555555555556,-6.166666666666667,533.3333333333334,-2C561.1111111111111,2.166666666666667,572.2222222222222,54.5,600,52C627.7777777777778,49.5,638.8888888888889,-10.875,666.6666666666667,-14C694.4444444444446,-17.125,707.6388888888889,32,733.3333333333334,37C759.0277777777778,42,778.1944444444445,15.625,790,10" transform="matrix(1,0,0,1,0,140)"></path><path d="M10,10C21.805555555555557,15,40.97222222222223,37.75,66.66666666666667,34C92.36111111111111,30.25,105.55555555555557,-4.666666666666667,133.33333333333334,-8C161.11111111111111,-11.333333333333332,172.22222222222223,19.875,200,18C227.77777777777777,16.125,238.8888888888889,-22.208333333333336,266.6666666666667,-17C294.44444444444446,-11.791666666666666,305.5555555555556,41.541666666666664,333.33333333333337,43C361.11111111111114,44.458333333333336,372.22222222222223,-7.708333333333334,400,-10C427.77777777777777,-12.291666666666666,438.8888888888889,30.333333333333332,466.6666666666667,32C494.44444444444446,33.666666666666664,505.5555555555556,-6.166666666666667,533.3333333333334,-2C561.1111111111111,2.166666666666667,572.2222222222222,54.5,600,52C627.7777777777778,49.5,638.8888888888889,-10.875,666.6666666666667,-14C694.4444444444446,-17.125,707.6388888888889,32,733.3333333333334,37C759.0277777777778,42,778.1944444444445,15.625,790,10" transform="matrix(1,0,0,1,0,105)"></path><path d="M10,10C21.805555555555557,15,40.97222222222223,37.75,66.66666666666667,34C92.36111111111111,30.25,105.55555555555557,-4.666666666666667,133.33333333333334,-8C161.11111111111111,-11.333333333333332,172.22222222222223,19.875,200,18C227.77777777777777,16.125,238.8888888888889,-22.208333333333336,266.6666666666667,-17C294.44444444444446,-11.791666666666666,305.5555555555556,41.541666666666664,333.33333333333337,43C361.11111111111114,44.458333333333336,372.22222222222223,-7.708333333333334,400,-10C427.77777777777777,-12.291666666666666,438.8888888888889,30.333333333333332,466.6666666666667,32C494.44444444444446,33.666666666666664,505.5555555555556,-6.166666666666667,533.3333333333334,-2C561.1111111111111,2.166666666666667,572.2222222222222,54.5,600,52C627.7777777777778,49.5,638.8888888888889,-10.875,666.6666666666667,-14C694.4444444444446,-17.125,707.6388888888889,32,733.3333333333334,37C759.0277777777778,42,778.1944444444445,15.625,790,10" transform="matrix(1,0,0,1,0,70)"></path><path d="M10,10C21.805555555555557,15,40.97222222222223,37.75,66.66666666666667,34C92.36111111111111,30.25,105.55555555555557,-4.666666666666667,133.33333333333334,-8C161.11111111111111,-11.333333333333332,172.22222222222223,19.875,200,18C227.77777777777777,16.125,238.8888888888889,-22.208333333333336,266.6666666666667,-17C294.44444444444446,-11.791666666666666,305.5555555555556,41.541666666666664,333.33333333333337,43C361.11111111111114,44.458333333333336,372.22222222222223,-7.708333333333334,400,-10C427.77777777777777,-12.291666666666666,438.8888888888889,30.333333333333332,466.6666666666667,32C494.44444444444446,33.666666666666664,505.5555555555556,-6.166666666666667,533.3333333333334,-2C561.1111111111111,2.166666666666667,572.2222222222222,54.5,600,52C627.7777777777778,49.5,638.8888888888889,-10.875,666.6666666666667,-14C694.4444444444446,-17.125,707.6388888888889,32,733.3333333333334,37C759.0277777777778,42,778.1944444444445,15.625,790,10" transform="matrix(1,0,0,1,0,35)"></path></g></svg>